<svg width="39" height="44" viewBox="0 0 39 44" fill="none" xmlns="http://www.w3.org/2000/svg">
<path fill-rule="evenodd" clip-rule="evenodd" d="M19.9657 1.44802C19.4606 1.34415 18.9398 1.34415 18.4347 1.44802C17.8509 1.56809 17.3291 1.86035 16.9143 2.0927L16.8012 2.15587L2.74173 9.96669C2.70286 9.98828 2.6628 10.0103 2.62176 10.033C2.18263 10.2748 1.63048 10.5789 1.20646 11.0391C0.83987 11.4369 0.562441 11.9084 0.392731 12.422C0.196435 13.0161 0.198732 13.6465 0.200558 14.1478C0.200729 14.1947 0.200896 14.2404 0.200896 14.2849V29.7068C0.200896 29.7513 0.200729 29.797 0.200558 29.8438C0.198732 30.3452 0.196435 30.9755 0.392731 31.5697C0.562443 32.0833 0.839872 32.5548 1.20646 32.9526C1.63048 33.4127 2.18263 33.7168 2.62176 33.9587C2.6628 33.9813 2.70286 34.0034 2.74173 34.025L16.8012 41.8358L16.9143 41.899C17.3291 42.1313 17.8509 42.4236 18.4347 42.5436C18.9398 42.6475 19.4606 42.6475 19.9657 42.5436C20.5495 42.4236 21.0713 42.1313 21.4861 41.899L21.5992 41.8358L35.6587 34.025C35.6758 34.0154 35.6933 34.0058 35.7109 33.9961C35.7331 33.9838 35.7557 33.9713 35.7786 33.9587C36.2178 33.7169 36.7699 33.4127 37.1939 32.9526C37.5605 32.5548 37.838 32.0833 38.0077 31.5697C38.204 30.9755 38.2017 30.3452 38.1998 29.8438C38.1997 29.797 38.1995 29.7513 38.1995 29.7068V14.2849C38.1995 14.2404 38.1997 14.1947 38.1998 14.1478C38.2017 13.6465 38.204 13.0161 38.0077 12.422C37.838 11.9084 37.5605 11.4369 37.1939 11.0391C36.7699 10.5789 36.2178 10.2748 35.7786 10.0329L35.7771 10.0321C35.7366 10.0098 35.697 9.98801 35.6587 9.96669L21.5992 2.15586L21.4861 2.09269C21.0713 1.86035 20.5495 1.56809 19.9657 1.44802ZM18.6466 5.47754C18.9345 5.31759 19.0815 5.23676 19.1911 5.18388L19.2002 5.17953L19.2093 5.18388C19.3189 5.23676 19.4659 5.31758 19.7538 5.47754L32.3873 12.4961L19.2001 19.8223L6.01304 12.4962L18.6466 5.47754ZM4.00076 15.7251L17.3002 23.1137L17.3003 37.7662L4.5871 30.7033C4.2832 30.5345 4.12804 30.4474 4.01919 30.378L4.00999 30.3721L4.00931 30.3612C4.00155 30.2324 4.00076 30.0545 4.00076 29.7068V15.7251Z" fill="black"/>
</svg>
