<svg width="117" height="30" viewBox="0 0 117 30" fill="none" xmlns="http://www.w3.org/2000/svg">
<path d="M5.49102 18.3452H11.539V21.9092H0.874023V2.95523H5.49102V18.3452Z" fill="black"/>
<path d="M15.7932 5.27723C14.9832 5.27723 14.3172 5.04323 13.7952 4.57523C13.2912 4.08923 13.0392 3.49523 13.0392 2.79323C13.0392 2.07323 13.2912 1.47923 13.7952 1.01123C14.3172 0.525227 14.9832 0.282227 15.7932 0.282227C16.5852 0.282227 17.2332 0.525227 17.7372 1.01123C18.2592 1.47923 18.5202 2.07323 18.5202 2.79323C18.5202 3.49523 18.2592 4.08923 17.7372 4.57523C17.2332 5.04323 16.5852 5.27723 15.7932 5.27723ZM18.0882 6.84323V21.9092H13.4712V6.84323H18.0882Z" fill="black"/>
<path d="M26.8881 6.62723C27.9501 6.62723 28.8771 6.84323 29.6691 7.27523C30.4791 7.70723 31.1001 8.27423 31.5321 8.97623V6.84323H36.1491V21.8822C36.1491 23.2682 35.8701 24.5192 35.3121 25.6352C34.7721 26.7692 33.9351 27.6692 32.8011 28.3352C31.6851 29.0012 30.2901 29.3342 28.6161 29.3342C26.3841 29.3342 24.5751 28.8032 23.1891 27.7412C21.8031 26.6972 21.0111 25.2752 20.8131 23.4752H25.3761C25.5201 24.0512 25.8621 24.5012 26.4021 24.8252C26.9421 25.1672 27.6081 25.3382 28.4001 25.3382C29.3541 25.3382 30.1101 25.0592 30.6681 24.5012C31.2441 23.9612 31.5321 23.0882 31.5321 21.8822V19.7492C31.0821 20.4512 30.4611 21.0272 29.6691 21.4772C28.8771 21.9092 27.9501 22.1252 26.8881 22.1252C25.6461 22.1252 24.5211 21.8102 23.5131 21.1802C22.5051 20.5322 21.7041 19.6232 21.1101 18.4532C20.5341 17.2652 20.2461 15.8972 20.2461 14.3492C20.2461 12.8012 20.5341 11.4422 21.1101 10.2722C21.7041 9.10223 22.5051 8.20223 23.5131 7.57223C24.5211 6.94223 25.6461 6.62723 26.8881 6.62723ZM31.5321 14.3762C31.5321 13.2242 31.2081 12.3152 30.5601 11.6492C29.9301 10.9832 29.1561 10.6502 28.2381 10.6502C27.3201 10.6502 26.5371 10.9832 25.8891 11.6492C25.2591 12.2972 24.9441 13.1972 24.9441 14.3492C24.9441 15.5012 25.2591 16.4192 25.8891 17.1032C26.5371 17.7692 27.3201 18.1022 28.2381 18.1022C29.1561 18.1022 29.9301 17.7692 30.5601 17.1032C31.2081 16.4372 31.5321 15.5282 31.5321 14.3762Z" fill="black"/>
<path d="M48.4803 6.68123C50.2083 6.68123 51.5943 7.25723 52.6383 8.40923C53.6823 9.54323 54.2043 11.1092 54.2043 13.1072V21.9092H49.6143V13.7282C49.6143 12.7202 49.3533 11.9372 48.8313 11.3792C48.3093 10.8212 47.6073 10.5422 46.7253 10.5422C45.8433 10.5422 45.1413 10.8212 44.6193 11.3792C44.0973 11.9372 43.8363 12.7202 43.8363 13.7282V21.9092H39.2193V1.92923H43.8363V8.86823C44.3043 8.20223 44.9433 7.67123 45.7533 7.27523C46.5633 6.87923 47.4723 6.68123 48.4803 6.68123Z" fill="black"/>
<path d="M65.5396 17.9942V21.9092H63.1907C61.5167 21.9092 60.2117 21.5042 59.2757 20.6942C58.3397 19.8662 57.8717 18.5252 57.8717 16.6712V10.6772H56.0357V6.84323H57.8717V3.17123H62.4887V6.84323H65.5126V10.6772H62.4887V16.7252C62.4887 17.1752 62.5967 17.4992 62.8127 17.6972C63.0287 17.8952 63.3887 17.9942 63.8927 17.9942H65.5396Z" fill="black"/>
<path d="M72.4584 8.97623C72.8904 8.27423 73.5114 7.70723 74.3214 7.27523C75.1314 6.84323 76.0584 6.62723 77.1024 6.62723C78.3444 6.62723 79.4694 6.94223 80.4774 7.57223C81.4854 8.20223 82.2774 9.10223 82.8534 10.2722C83.4474 11.4422 83.7444 12.8012 83.7444 14.3492C83.7444 15.8972 83.4474 17.2652 82.8534 18.4532C82.2774 19.6232 81.4854 20.5322 80.4774 21.1802C79.4694 21.8102 78.3444 22.1252 77.1024 22.1252C76.0404 22.1252 75.1134 21.9182 74.3214 21.5042C73.5294 21.0722 72.9084 20.5052 72.4584 19.8032V21.9092H67.8414V1.92923H72.4584V8.97623ZM79.0464 14.3492C79.0464 13.1972 78.7224 12.2972 78.0744 11.6492C77.4444 10.9832 76.6614 10.6502 75.7254 10.6502C74.8074 10.6502 74.0244 10.9832 73.3764 11.6492C72.7464 12.3152 72.4314 13.2242 72.4314 14.3762C72.4314 15.5282 72.7464 16.4372 73.3764 17.1032C74.0244 17.7692 74.8074 18.1022 75.7254 18.1022C76.6434 18.1022 77.4264 17.7692 78.0744 17.1032C78.7224 16.4192 79.0464 15.5012 79.0464 14.3492Z" fill="black"/>
<path d="M92.7546 22.1252C91.2786 22.1252 89.9466 21.8102 88.7586 21.1802C87.5886 20.5502 86.6616 19.6502 85.9776 18.4802C85.3116 17.3102 84.9786 15.9422 84.9786 14.3762C84.9786 12.8282 85.3206 11.4692 86.0046 10.2992C86.6886 9.11123 87.6246 8.20223 88.8126 7.57223C90.0006 6.94223 91.3326 6.62723 92.8086 6.62723C94.2846 6.62723 95.6166 6.94223 96.8046 7.57223C97.9926 8.20223 98.9286 9.11123 99.6126 10.2992C100.297 11.4692 100.639 12.8282 100.639 14.3762C100.639 15.9242 100.288 17.2922 99.5856 18.4802C98.9016 19.6502 97.9566 20.5502 96.7506 21.1802C95.5626 21.8102 94.2306 22.1252 92.7546 22.1252ZM92.7546 18.1292C93.6366 18.1292 94.3836 17.8052 94.9956 17.1572C95.6256 16.5092 95.9406 15.5822 95.9406 14.3762C95.9406 13.1702 95.6346 12.2432 95.0226 11.5952C94.4286 10.9472 93.6906 10.6232 92.8086 10.6232C91.9086 10.6232 91.1616 10.9472 90.5676 11.5952C89.9736 12.2252 89.6766 13.1522 89.6766 14.3762C89.6766 15.5822 89.9646 16.5092 90.5406 17.1572C91.1346 17.8052 91.8726 18.1292 92.7546 18.1292Z" fill="black"/>
<path d="M111.728 21.9092L108.839 17.7242L106.409 21.9092H101.414L106.382 14.2142L101.279 6.84323H106.463L109.352 11.0012L111.782 6.84323H116.777L111.728 14.4302L116.912 21.9092H111.728Z" fill="black"/>
</svg>
