<svg width="128" height="23" viewBox="0 0 128 23" fill="none" xmlns="http://www.w3.org/2000/svg">
<path d="M14.5201 0.90918V16.1192L4.77012 0.90918H0.870117V21.9092H4.77012V6.81918L14.5201 21.9092H18.4201V0.90918H14.5201Z" fill="black"/>
<path d="M20.1775 4.83918H24.1975V0.90918H20.1775V4.83918ZM20.2375 21.9092V6.90918H24.1375V21.9092H20.2375Z" fill="black"/>
<path d="M40.9175 14.4092C40.9175 9.21918 37.2275 6.75918 33.3275 6.72918C29.3975 6.69918 25.7675 9.21918 25.7675 14.4092C25.7675 19.5992 29.3975 22.1192 33.3275 22.0892C36.8975 22.0592 39.3575 20.4092 40.4975 17.6792L37.4675 16.4192C36.5375 18.2792 35.0675 18.9392 33.3275 18.9692C31.8275 18.9992 30.1175 18.2792 29.7575 15.6092H40.8275C40.8875 15.2192 40.9175 14.8292 40.9175 14.4092ZM33.3275 9.81918C34.8275 9.84918 36.3575 10.6592 36.8375 12.8192H29.8175C30.3275 10.6292 31.8575 9.78918 33.3275 9.81918Z" fill="black"/>
<path d="M49.9307 9.69918V6.72918H47.4707V2.70918L43.5707 3.90918V6.72918H41.1107V9.69918H43.5707V17.4692C43.5707 20.4092 43.8107 21.9092 48.3707 21.9092H49.4207V18.4892H48.3707C47.6507 18.4892 47.4707 18.3692 47.4707 17.4692V9.69918H49.9307Z" fill="black"/>
<path d="M55.7258 18.6392L64.0058 10.1792V6.90918H51.5858V10.1792H59.6258L51.3458 18.6392V21.9092H64.0958V18.6392H55.7258Z" fill="black"/>
<path d="M65.4941 17.6792L69.4241 17.0792C69.6941 18.5792 71.4641 19.1492 72.5441 19.1492C73.6541 19.1492 75.5741 18.9092 75.5741 17.1092C75.5741 13.5992 65.9441 17.9792 65.9441 11.2592C65.9441 6.93918 70.9541 6.69918 72.5441 6.69918C74.0441 6.69918 78.3941 6.93918 79.2941 10.4192L75.5741 11.1992C75.2441 9.60918 73.5641 9.30918 72.6641 9.30918C71.7641 9.30918 69.8441 9.51918 69.8441 11.2592C69.8441 14.7392 79.4741 10.2992 79.4741 17.1092C79.4741 21.6992 74.1941 22.0892 72.5441 22.0892C71.0441 22.0892 66.2741 21.6992 65.4941 17.6792Z" fill="black"/>
<path d="M84.5406 14.4092C84.5406 18.0692 86.4906 19.1792 88.5306 19.1492C90.3606 19.1192 91.6206 18.3692 92.3706 16.2692L95.5806 17.8292C94.4106 20.8892 91.5606 22.0592 88.5306 22.0892C84.6006 22.1192 80.6406 19.5992 80.6406 14.4092C80.6406 9.21918 84.6006 6.69918 88.5306 6.72918C91.5606 6.75918 94.4106 7.92918 95.5806 10.9892L92.3706 12.5492C91.6206 10.4492 90.3606 9.69918 88.5306 9.66918C86.4906 9.63918 84.5406 10.7492 84.5406 14.4092Z" fill="black"/>
<path d="M106.05 6.66918C104.04 6.66918 102.21 7.71918 101.04 9.96918V0.90918H97.1404V21.9092H101.04V16.5992C101.04 9.72918 103.89 9.15918 104.94 9.15918C106.62 9.15918 106.86 10.8992 106.86 13.4492V21.9092H110.76V13.4492C110.76 10.2692 110.25 6.66918 106.05 6.66918Z" fill="black"/>
<path d="M127.226 14.4092C127.226 9.21918 123.536 6.75918 119.636 6.72918C115.706 6.69918 112.076 9.21918 112.076 14.4092C112.076 19.5992 115.706 22.1192 119.636 22.0892C123.206 22.0592 125.666 20.4092 126.806 17.6792L123.776 16.4192C122.846 18.2792 121.376 18.9392 119.636 18.9692C118.136 18.9992 116.426 18.2792 116.066 15.6092H127.136C127.196 15.2192 127.226 14.8292 127.226 14.4092ZM119.636 9.81918C121.136 9.84918 122.666 10.6592 123.146 12.8192H116.126C116.636 10.6292 118.166 9.78918 119.636 9.81918Z" fill="black"/>
</svg>
