<svg width="112" height="29" viewBox="0 0 112 29" fill="none" xmlns="http://www.w3.org/2000/svg">
<path d="M8.45031 22.2401C13.1603 22.2401 16.3403 19.7801 16.3403 15.8501C16.3403 7.54006 5.30031 11.0801 5.30031 6.70006C5.30031 5.47006 6.41031 4.63006 8.18031 4.63006C10.1903 4.63006 11.4503 5.71006 11.6003 7.36006H15.8903C15.7703 3.37006 12.7103 0.76006 8.18031 0.76006C3.92031 0.76006 0.920313 3.22006 0.920313 6.70006C0.920313 14.9501 11.8103 11.8001 11.8103 15.9101C11.8103 17.5001 10.4603 18.3401 8.45031 18.3401C6.23031 18.3401 4.82031 16.9901 4.64031 14.8601H0.320312C0.500313 19.3301 3.68031 22.2401 8.45031 22.2401Z" fill="black"/>
<path d="M17.3605 28.1201H21.5305V20.6501C22.3405 21.6701 23.8105 22.2401 25.5205 22.2401C29.8705 22.2401 32.8105 19.1501 32.8105 14.4401C32.8105 9.73006 30.1105 6.64006 25.8805 6.64006C23.9305 6.64006 22.4305 7.36006 21.5305 8.53006V6.88006H17.3605V28.1201ZM25.0105 18.6401C22.7605 18.6401 21.2905 16.9601 21.2905 14.4401C21.2905 11.8901 22.7605 10.2101 25.0105 10.2101C27.2005 10.2101 28.7005 11.8901 28.7005 14.4401C28.7005 16.9601 27.2005 18.6401 25.0105 18.6401Z" fill="black"/>
<path d="M33.8195 22.0001H37.9895V13.7201C37.9895 11.7701 39.2795 10.3601 41.1095 10.3601C42.8495 10.3601 44.0495 11.6801 44.0495 13.5101V22.0001H48.2195V12.5801C48.2195 9.10006 45.9995 6.64006 42.6095 6.64006C40.5095 6.64006 38.8595 7.51006 37.9895 8.98006V0.310059H33.8195V22.0001Z" fill="black"/>
<path d="M59.8848 16.8701C59.5548 18.1601 58.4448 18.8201 56.7648 18.8201C54.6648 18.8201 53.3148 17.5001 53.0148 15.3701H63.8748C63.9048 15.0401 63.9348 14.5901 63.9348 14.0201C63.9348 10.5701 61.8048 6.64006 56.4648 6.64006C51.3348 6.64006 48.9948 10.5701 48.9948 14.4101C48.9948 18.2201 51.6348 22.2401 56.7648 22.2401C60.4848 22.2401 63.3648 20.1401 63.9648 16.8701H59.8848ZM56.4648 9.70006C58.4748 9.70006 59.6448 11.0501 59.7648 12.7301H53.0748C53.4348 10.6301 54.5748 9.70006 56.4648 9.70006Z" fill="black"/>
<path d="M74.8712 10.3601V6.88006H72.7197C70.8897 6.88006 69.7497 7.51006 68.9397 9.40006V6.88006H64.7397V22.0001H68.9397V14.6501C68.9397 12.0701 69.8697 10.3601 71.9397 10.3601H74.8712Z" fill="black"/>
<path d="M89.2712 6.88006H85.0713V15.1601C85.0713 17.0801 83.7812 18.5201 81.9512 18.5201C80.2412 18.5201 79.0413 17.2001 79.0413 15.3701V6.88006H74.8712V16.3001C74.8712 19.7501 77.0912 22.2401 80.4812 22.2401C82.5512 22.2401 84.2313 21.3401 85.0713 19.9001V22.0001H89.2712V6.88006Z" fill="black"/>
<path d="M91.0715 22.0001H95.2415V0.310059H91.0715V22.0001Z" fill="black"/>
<path d="M107.147 16.8701C106.817 18.1601 105.707 18.8201 104.027 18.8201C101.927 18.8201 100.577 17.5001 100.277 15.3701H111.137C111.167 15.0401 111.197 14.5901 111.197 14.0201C111.197 10.5701 109.067 6.64006 103.727 6.64006C98.5966 6.64006 96.2566 10.5701 96.2566 14.4101C96.2566 18.2201 98.8966 22.2401 104.027 22.2401C107.747 22.2401 110.627 20.1401 111.227 16.8701H107.147ZM103.727 9.70006C105.737 9.70006 106.907 11.0501 107.027 12.7301H100.337C100.697 10.6301 101.837 9.70006 103.727 9.70006Z" fill="black"/>
</svg>
