<svg width="115" height="23" viewBox="0 0 115 23" fill="none" xmlns="http://www.w3.org/2000/svg">
<path d="M0.379883 21.9093V18.4293H3.13988V4.38926H0.379883V0.909258H11.1799C12.4599 0.909258 13.5699 1.12926 14.5099 1.56926C15.4699 1.98926 16.2099 2.59926 16.7299 3.39926C17.2699 4.17926 17.5399 5.11926 17.5399 6.21926V6.51926C17.5399 7.47926 17.3599 8.26926 16.9999 8.88926C16.6399 9.48926 16.2099 9.95926 15.7099 10.2993C15.2299 10.6193 14.7699 10.8493 14.3299 10.9893V11.5293C14.7699 11.6493 15.2499 11.8793 15.7699 12.2193C16.2899 12.5393 16.7299 13.0093 17.0899 13.6293C17.4699 14.2493 17.6599 15.0593 17.6599 16.0593V16.3593C17.6599 17.5193 17.3899 18.5193 16.8499 19.3593C16.3099 20.1793 15.5599 20.8093 14.5999 21.2493C13.6599 21.6893 12.5599 21.9093 11.2999 21.9093H0.379883ZM7.09988 18.3093H10.8199C11.6799 18.3093 12.3699 18.0993 12.8899 17.6793C13.4299 17.2593 13.6999 16.6593 13.6999 15.8793V15.5793C13.6999 14.7993 13.4399 14.1993 12.9199 13.7793C12.3999 13.3593 11.6999 13.1493 10.8199 13.1493H7.09988V18.3093ZM7.09988 9.54926H10.7599C11.5799 9.54926 12.2499 9.33926 12.7699 8.91926C13.3099 8.49926 13.5799 7.91926 13.5799 7.17926V6.87926C13.5799 6.11926 13.3199 5.53926 12.7999 5.13926C12.2799 4.71926 11.5999 4.50926 10.7599 4.50926H7.09988V9.54926Z" fill="black"/>
<path d="M26.6018 22.3293C25.1218 22.3293 23.7918 22.0293 22.6118 21.4293C21.4318 20.8293 20.5018 19.9593 19.8218 18.8193C19.1418 17.6793 18.8018 16.3093 18.8018 14.7093V14.2293C18.8018 12.6293 19.1418 11.2593 19.8218 10.1193C20.5018 8.97926 21.4318 8.10926 22.6118 7.50926C23.7918 6.90926 25.1218 6.60926 26.6018 6.60926C28.0818 6.60926 29.4118 6.90926 30.5918 7.50926C31.7718 8.10926 32.7018 8.97926 33.3818 10.1193C34.0618 11.2593 34.4018 12.6293 34.4018 14.2293V14.7093C34.4018 16.3093 34.0618 17.6793 33.3818 18.8193C32.7018 19.9593 31.7718 20.8293 30.5918 21.4293C29.4118 22.0293 28.0818 22.3293 26.6018 22.3293ZM26.6018 18.9693C27.7618 18.9693 28.7218 18.5993 29.4818 17.8593C30.2418 17.0993 30.6218 16.0193 30.6218 14.6193V14.3193C30.6218 12.9193 30.2418 11.8493 29.4818 11.1093C28.7418 10.3493 27.7818 9.96926 26.6018 9.96926C25.4418 9.96926 24.4818 10.3493 23.7218 11.1093C22.9618 11.8493 22.5818 12.9193 22.5818 14.3193V14.6193C22.5818 16.0193 22.9618 17.0993 23.7218 17.8593C24.4818 18.5993 25.4418 18.9693 26.6018 18.9693Z" fill="black"/>
<path d="M36.3909 21.9093V0.909258H40.1709V21.9093H36.3909Z" fill="black"/>
<path d="M48.5596 21.9093C47.5796 21.9093 46.7796 21.6093 46.1596 21.0093C45.5596 20.3893 45.2596 19.5693 45.2596 18.5493V10.1493H41.5396V7.02926H45.2596V2.40926H49.0396V7.02926H53.1196V10.1493H49.0396V17.8893C49.0396 18.4893 49.3196 18.7893 49.8796 18.7893H52.7596V21.9093H48.5596Z" fill="black"/>
<path d="M61.2213 22.3293C59.2813 22.3293 57.6913 21.9093 56.4513 21.0693C55.2113 20.2293 54.4613 19.0293 54.2013 17.4693L57.6813 16.5693C57.8213 17.2693 58.0513 17.8193 58.3713 18.2193C58.7113 18.6193 59.1213 18.9093 59.6013 19.0893C60.1013 19.2493 60.6413 19.3293 61.2213 19.3293C62.1013 19.3293 62.7513 19.1793 63.1713 18.8793C63.5913 18.5593 63.8013 18.1693 63.8013 17.7093C63.8013 17.2493 63.6013 16.8993 63.2013 16.6593C62.8013 16.3993 62.1613 16.1893 61.2813 16.0293L60.4413 15.8793C59.4013 15.6793 58.4513 15.4093 57.5913 15.0693C56.7313 14.7093 56.0413 14.2193 55.5213 13.5993C55.0013 12.9793 54.7413 12.1793 54.7413 11.1993C54.7413 9.71926 55.2813 8.58926 56.3613 7.80926C57.4413 7.00926 58.8613 6.60926 60.6213 6.60926C62.2813 6.60926 63.6613 6.97926 64.7613 7.71926C65.8613 8.45926 66.5813 9.42926 66.9213 10.6293L63.4113 11.7093C63.2513 10.9493 62.9213 10.4093 62.4213 10.0893C61.9413 9.76926 61.3413 9.60926 60.6213 9.60926C59.9013 9.60926 59.3513 9.73926 58.9713 9.99926C58.5913 10.2393 58.4013 10.5793 58.4013 11.0193C58.4013 11.4993 58.6013 11.8593 59.0013 12.0993C59.4013 12.3193 59.9413 12.4893 60.6213 12.6093L61.4613 12.7593C62.5813 12.9593 63.5913 13.2293 64.4913 13.5693C65.4113 13.8893 66.1313 14.3593 66.6513 14.9793C67.1913 15.5793 67.4613 16.3993 67.4613 17.4393C67.4613 18.9993 66.8913 20.2093 65.7513 21.0693C64.6313 21.9093 63.1213 22.3293 61.2213 22.3293Z" fill="black"/>
<path d="M69.2737 21.9093V0.909258H73.0537V8.85926H73.5937C73.7537 8.53926 74.0037 8.21926 74.3437 7.89926C74.6837 7.57926 75.1337 7.31926 75.6937 7.11926C76.2737 6.89926 77.0037 6.78926 77.8837 6.78926C79.0437 6.78926 80.0537 7.05926 80.9137 7.59926C81.7937 8.11926 82.4737 8.84926 82.9537 9.78926C83.4337 10.7093 83.6737 11.7893 83.6737 13.0293V21.9093H79.8937V13.3293C79.8937 12.2093 79.6137 11.3693 79.0537 10.8093C78.5137 10.2493 77.7337 9.96926 76.7137 9.96926C75.5537 9.96926 74.6537 10.3593 74.0137 11.1393C73.3737 11.8993 73.0537 12.9693 73.0537 14.3493V21.9093H69.2737Z" fill="black"/>
<path d="M86.26 21.9093V7.02926H90.04V21.9093H86.26ZM88.15 5.28926C87.47 5.28926 86.89 5.06926 86.41 4.62926C85.95 4.18926 85.72 3.60926 85.72 2.88926C85.72 2.16926 85.95 1.58926 86.41 1.14926C86.89 0.709258 87.47 0.489258 88.15 0.489258C88.85 0.489258 89.43 0.709258 89.89 1.14926C90.35 1.58926 90.58 2.16926 90.58 2.88926C90.58 3.60926 90.35 4.18926 89.89 4.62926C89.43 5.06926 88.85 5.28926 88.15 5.28926Z" fill="black"/>
<path d="M95.1888 21.9093V10.1493H91.4088V7.02926H95.1888V4.26926C95.1888 3.24926 95.4888 2.43926 96.0888 1.83926C96.7088 1.21926 97.5088 0.909258 98.4888 0.909258H102.389V4.02926H99.8088C99.2488 4.02926 98.9688 4.32926 98.9688 4.92926V7.02926H102.869V10.1493H98.9688V21.9093H95.1888Z" fill="black"/>
<path d="M109.702 21.9093C108.722 21.9093 107.922 21.6093 107.302 21.0093C106.702 20.3893 106.402 19.5693 106.402 18.5493V10.1493H102.682V7.02926H106.402V2.40926H110.182V7.02926H114.262V10.1493H110.182V17.8893C110.182 18.4893 110.462 18.7893 111.022 18.7893H113.902V21.9093H109.702Z" fill="black"/>
</svg>
