<svg width="45" height="45" viewBox="0 0 45 45" fill="none" xmlns="http://www.w3.org/2000/svg">
<circle cx="22.6001" cy="22.25" r="20.5" stroke="black" stroke-width="3"/>
<path d="M30.7316 30.3817C26.5922 34.5211 21.9027 37.2233 17.7263 38.2972C13.5123 39.3808 10.1156 38.7571 8.10422 36.7456C6.09281 34.7342 5.46902 31.3376 6.55265 27.1235C7.62657 22.9472 10.3288 18.2576 14.4682 14.1182C18.6076 9.97883 23.2971 7.27662 27.4735 6.2027C31.6876 5.11907 35.0842 5.74286 37.0956 7.75427C39.107 9.76568 39.7308 13.1623 38.6472 17.3764C37.5732 21.5528 34.871 26.2423 30.7316 30.3817Z" stroke="black" stroke-width="3"/>
<path d="M30.7315 14.1182C34.8709 18.2576 37.5731 22.9471 38.6471 27.1235C39.7307 31.3376 39.1069 34.7342 37.0955 36.7456C35.0841 38.757 31.6875 39.3808 27.4734 38.2972C23.297 37.2233 18.6075 34.5211 14.4681 30.3817C10.3287 26.2423 7.62647 21.5528 6.55255 17.3764C5.46893 13.1623 6.09271 9.76567 8.10412 7.75426C10.1155 5.74285 13.5122 5.11906 17.7263 6.20269C21.9026 7.27661 26.5921 9.97882 30.7315 14.1182Z" stroke="black" stroke-width="3"/>
</svg>
