<svg width="45" height="44" viewBox="0 0 45 44" fill="none" xmlns="http://www.w3.org/2000/svg">
<path opacity="0.8" d="M36.7067 9.16308C36.2744 8.73086 35.8422 8.29864 35.41 7.86642C34.1133 6.48331 32.7302 5.10021 31.0014 4.23577C29.0131 3.19844 26.8521 3.45777 24.691 3.45777C21.4061 3.45777 13.1939 3.45777 8.35303 3.45777L11.6379 7.86642C17.6025 7.86642 26.9385 7.86642 31.2607 7.86642C33.076 7.86642 34.632 8.21219 36.1016 9.16308C36.3609 9.24952 36.6202 9.24952 36.7067 9.16308Z" fill="black"/>
<path opacity="0.9" d="M40.3371 16.2517C39.9049 15.8195 39.4727 15.3873 39.0405 14.955C37.7438 13.5719 36.3607 12.1888 34.6318 11.3244C32.6436 10.2871 30.4825 10.5464 28.3214 10.5464C25.4688 10.5464 18.6397 10.5464 13.7988 10.5464L17.0837 14.955C22.9619 14.955 31.0012 14.955 34.9776 14.955C36.7929 14.955 38.3489 15.3008 39.8185 16.2517C39.9914 16.3381 40.1643 16.3381 40.3371 16.2517Z" fill="black"/>
<path d="M44.3999 23.167C43.9676 22.7348 43.5354 22.3025 43.1032 21.8703C41.8065 20.4872 40.4234 19.1041 38.6946 18.2397C36.7064 17.2023 34.5453 17.4617 32.3842 17.4617C29.7044 17.4617 23.8262 17.4617 19.0718 17.4617L22.3566 21.8703C28.0619 21.8703 35.3233 21.8703 38.9539 21.8703C40.7692 21.8703 42.3252 22.2161 43.7948 23.167C44.0541 23.2534 44.227 23.3399 44.3999 23.167Z" fill="black"/>
<path opacity="0.8" d="M8.00684 34.8368C8.43906 35.269 8.87128 35.7012 9.3035 36.1335C10.6002 37.5166 11.9833 38.8997 13.7121 39.7641C15.7003 40.8014 17.8614 40.5421 20.0225 40.5421H36.3605L33.0756 36.1335C27.111 36.1335 17.775 36.1335 13.4528 36.1335C11.6375 36.1335 10.0815 35.7877 8.61194 34.8368C8.35261 34.7504 8.17972 34.7504 8.00684 34.8368Z" fill="black"/>
<path opacity="0.9" d="M4.37646 27.7487C4.80868 28.1809 5.24091 28.6131 5.67313 29.0453C6.96979 30.4284 8.35288 31.8116 10.0818 32.676C12.07 33.7133 14.2311 33.454 16.3922 33.454H30.9148L27.6299 29.0453C21.7517 29.0453 13.7124 29.0453 9.73599 29.0453C7.92067 29.0453 6.36467 28.6996 4.89512 27.7487C4.72223 27.6622 4.54935 27.6622 4.37646 27.7487Z" fill="black"/>
<path d="M0.399902 20.7465C0.832122 21.1787 1.26434 21.6109 1.69656 22.0431C2.99322 23.4262 4.37633 24.8094 6.10521 25.6738C8.09343 26.7111 10.2545 26.4518 12.4156 26.4518H25.728L22.4431 22.0431C16.7378 22.0431 9.47653 22.0431 5.84588 22.0431C4.03055 22.0431 2.47456 21.6974 1.00501 20.7465C0.745676 20.66 0.57279 20.66 0.399902 20.7465Z" fill="black"/>
</svg>
