<svg width="145" height="23" viewBox="0 0 145 23" fill="none" xmlns="http://www.w3.org/2000/svg">
<path d="M11.1398 22.2401C13.8398 22.2401 16.0598 20.8601 16.7498 18.7901V22.0001H20.7398V13.9001C20.7398 12.0701 19.2998 10.5101 17.3498 10.5101H11.6498V13.9001H15.6998C16.2098 13.9001 16.5398 14.2301 16.5398 14.7401C16.5398 16.6901 13.9598 18.5801 11.3498 18.5801C7.86982 18.5801 5.10982 15.8501 5.10982 11.5001C5.10982 7.15006 7.86982 4.63006 11.4398 4.63006C14.1398 4.63006 15.9998 6.10006 16.3298 8.35006H20.7998C20.5298 3.85006 16.7498 0.76006 11.4698 0.76006C5.91982 0.76006 0.819824 4.33006 0.819824 11.5001C0.819824 18.6701 5.76982 22.2401 11.1398 22.2401Z" fill="black"/>
<path d="M22.4526 22.0001H26.6226V0.310059H22.4526V22.0001Z" fill="black"/>
<path d="M35.6177 22.2401C40.2677 22.2401 43.5977 18.9401 43.5977 14.4401C43.5977 9.94006 40.2677 6.64006 35.6177 6.64006C30.9677 6.64006 27.6377 9.94006 27.6377 14.4401C27.6377 18.9401 30.9677 22.2401 35.6177 22.2401ZM35.6177 18.6401C33.3677 18.6401 31.8377 16.9301 31.8377 14.4401C31.8377 11.9201 33.3677 10.2101 35.6177 10.2101C37.8677 10.2101 39.3977 11.9201 39.3977 14.4401C39.3977 16.9301 37.8677 18.6401 35.6177 18.6401Z" fill="black"/>
<path d="M52.9287 22.2401C57.3987 22.2401 60.0687 19.1501 60.0687 14.4401C60.0687 9.73006 57.3987 6.64006 52.9887 6.64006C51.0987 6.64006 49.6287 7.36006 48.7887 8.47006V0.310059H44.6187V22.0001H48.7887V20.3501C49.6287 21.5201 51.1887 22.2401 52.9287 22.2401ZM52.2687 18.6401C50.0187 18.6401 48.5487 16.9601 48.5487 14.4401C48.5487 11.8901 50.0187 10.2101 52.2687 10.2101C54.4587 10.2101 55.9587 11.8901 55.9587 14.4401C55.9587 16.9601 54.4587 18.6401 52.2687 18.6401Z" fill="black"/>
<path d="M67.049 6.64006C62.909 6.64006 60.449 9.07006 60.269 12.1001H63.989C64.049 10.8401 64.979 9.70006 66.809 9.70006C68.519 9.70006 69.509 10.5701 69.509 11.8301C69.509 12.4601 69.119 12.9401 68.369 12.9401H65.819C62.519 12.9401 60.299 14.7401 60.299 17.7101C60.299 20.2901 62.309 22.2401 65.249 22.2401C67.319 22.2401 68.999 21.3101 69.509 19.9001V22.0001H73.649V12.2801C73.649 8.86006 70.859 6.64006 67.049 6.64006ZM66.299 19.2101C65.129 19.2101 64.289 18.5201 64.289 17.5301C64.289 16.3601 65.189 15.5801 66.449 15.5801H69.509V15.7901C69.509 17.7101 68.339 19.2101 66.299 19.2101Z" fill="black"/>
<path d="M75.2515 22.0001H79.4215V0.310059H75.2515V22.0001Z" fill="black"/>
<path d="M81.6365 22.0001H90.2165C94.6565 22.0001 97.7165 19.7201 97.7165 15.7301C97.7165 12.9701 96.0965 11.2901 94.1765 10.5401C95.4065 9.88006 96.6365 8.38006 96.6365 6.40006C96.6365 2.89006 93.7865 1.00006 89.9765 1.00006H81.6365V22.0001ZM86.0765 9.01006V4.57006H89.5565C91.5665 4.57006 92.4665 5.38006 92.4665 6.79006C92.4665 8.20006 91.5665 9.01006 89.6465 9.01006H86.0765ZM86.0765 18.1001V12.8201H89.8265C92.3165 12.8201 93.4265 13.7801 93.4265 15.4901C93.4265 17.2001 92.3165 18.1001 89.8265 18.1001H86.0765Z" fill="black"/>
<path d="M104.971 6.64006C100.831 6.64006 98.3709 9.07006 98.1909 12.1001H101.911C101.971 10.8401 102.901 9.70006 104.731 9.70006C106.441 9.70006 107.431 10.5701 107.431 11.8301C107.431 12.4601 107.041 12.9401 106.291 12.9401H103.741C100.441 12.9401 98.2209 14.7401 98.2209 17.7101C98.2209 20.2901 100.231 22.2401 103.171 22.2401C105.241 22.2401 106.921 21.3101 107.431 19.9001V22.0001H111.571V12.2801C111.571 8.86006 108.781 6.64006 104.971 6.64006ZM104.221 19.2101C103.051 19.2101 102.211 18.5201 102.211 17.5301C102.211 16.3601 103.111 15.5801 104.371 15.5801H107.431V15.7901C107.431 17.7101 106.261 19.2101 104.221 19.2101Z" fill="black"/>
<path d="M112.933 22.0001H117.133V13.7201C117.133 11.7701 118.423 10.3601 120.253 10.3601C121.993 10.3601 123.163 11.6801 123.163 13.5101V22.0001H127.363V12.5801C127.363 9.10006 125.143 6.64006 121.723 6.64006C119.653 6.64006 117.973 7.51006 117.133 8.98006V6.88006H112.933V22.0001Z" fill="black"/>
<path d="M139.334 22.0001H144.374L137.864 12.8201L143.894 6.88006H138.614L133.364 12.0401V0.310059H129.164V22.0001H133.364V17.2601L135.044 15.6101L139.334 22.0001Z" fill="black"/>
</svg>
